<svg id="egeb2XmhLHG1" xmlns="http://www.w3.org/2000/svg" xmlns:xlink="http://www.w3.org/1999/xlink" viewBox="0 0 300 300" shape-rendering="geometricPrecision" text-rendering="geometricPrecision"><ellipse rx="150" ry="150" transform="translate(150 150)" fill="#4e6b89" stroke-width="0"/><path d="M69.920829,276.468044c9.023751-31.940413,17.132414-88.676423,30.07917-106.468045s30-19.999999,30-19.999999-15.431528-5.168324-21.038975-17.785078-4.01577-30.778547,2.322814-42.214923s19.574453-22.78573,38.463497-22.867343s32.387992,12.436989,37.536503,22.867343s7.830979,29.723657,3.149809,41.639361-20.433648,18.360639-20.433648,18.360639s17.057142,2.20748,30,20s21.028505,74.527632,30.040721,106.468045c-13.447761,8.677889-42.756882,23.531955-79.756882,23.531955-26.895902,0-57.975035-7.761243-80.363009-23.531955Z" transform="translate(.293282 0.000001)" fill="#C5F7FE" stroke="#3f5787" stroke-width="0.6"/></svg>
