<svg id="recall-rocket-favicon" xmlns="http://www.w3.org/2000/svg" xmlns:xlink="http://www.w3.org/1999/xlink" viewBox="0 0 300 300" shape-rendering="geometricPrecision" text-rendering="geometricPrecision"><rect id="recall-rocket-favicon-u-background" width="296" height="296" rx="36" ry="36" transform="translate(2 2)" fill="#8ff0ff" stroke="#56bbea" stroke-width="4"/><g id="recall-rocket-favicon-u-rocket" transform="matrix(2.179645 2.279567-2.279567 2.179645 34.06908-300.368898)"><g id="recall-rocket-favicon-u-rocket2" transform="matrix(.525963-.013489 0.018399 0.717413 47.236075-17.782768)"><path id="recall-rocket-favicon-u-thruster" d="M127.880843,146.036431c0,0,.665607,3.783252,3.528999,5.948019s7.187756,4.426857,18.565589,4.427284s15.178748-2.299382,18.094026-4.436462s3.555391-5.86588,3.555391-5.86588l-43.744005-.072961Z" transform="translate(.000001 0)" fill="#574e4e" stroke-width="0.6"/><path id="recall-rocket-favicon-u-body" d="M150.028618,52.847952c-5.205565-.000203-12.378857,5.430136-16.218743,11.824276-10.629586,17.70028-10.952657,39.65972-10.855166,45.0453s4.955191,36.158941,4.955191,36.158941s1.841613,6.126731,22.096282,6.127501s21.621936-6.136448,21.621936-6.136448s5.367225-30.559862,5.602422-36.149994-.689814-27.367711-10.84074-45.060245c-3.424901-5.969424-11.155617-11.809128-16.361182-11.809331Z" transform="translate(.000003 0.000001)" fill="#fff" stroke-width="0.6"/><g id="recall-rocket-favicon-u-mask-group" mask="url(#recall-rocket-favicon-u-masks)"><path id="recall-rocket-favicon-u-nose-cone-fill" d="M-35.745802,0c.023777-19.204084,16.40402-36.279461,34.980808-36.278692s36.021351,17.053914,35.986971,36.269579c-.036131,20.194609-16.445807,31.80422-35.975553,31.803417s-35.017281-11.558267-34.992226-31.794304Z" transform="matrix(1 0 0 0.929936 150.722077 62.336094)" fill="#ed4949" stroke-width="0"/><mask id="recall-rocket-favicon-u-masks" mask-type="alpha" x="-150%" y="-150%" height="400%" width="400%"><path id="recall-rocket-favicon-u-nose-cone-mask" d="M149.975185,52.826384c-6.122563-.045661-12.839443,6.267753-16.16531,11.845844-10.550678,17.695432-11.460543,46.134979-10.855166,45.0453l-.110391,32.382329c0,0,10.811232,7.899508,27.155679,7.900142s27.244075-7.617695,27.244075-7.617695l-.013532-32.664776c.923246,1.292545-.79442-27.4199-10.625319-45.022243-3.158903-5.656054-10.507472-11.82324-16.630036-11.868901Z" transform="translate(.000003 0.000001)" fill="#ffe2e2" stroke="#3f5787" stroke-width="0.6"/></mask></g><path id="recall-rocket-favicon-u-right-wing" d="M122.994236,111.029513c.87749,7.688836,4.311775,27.394254,5.550636,34.908518-2.43054-4.57846-9.395093-11.156623-12.585596-10.27811-7.922051,2.625154-14.027399,20.289514-14.024003,40.668047-3.468944-4.483329-10.724312-20.155354-9.206605-35.999228c2.126834-22.202765,12.95519-35.109262,18.556176-36.123092c4.188199-.645027,8.862349,3.401903,11.709392,6.823865Z" transform="matrix(-1 0 0 1 300.140954-.000004)" fill="#ed4949" stroke-width="0.6"/><path id="recall-rocket-favicon-u-center-wing" d="M109.739172,104.231087c6.932005.000272,6.671112,5.439211,6.671112,5.439211s.848501,15.79803.030561,25.834267-6.734895,40.742905-6.734895,40.742905-5.901375-30.678879-6.706182-40.717895.083824-25.874907.083824-25.874907-.276425-5.423853,6.65558-5.423581Z" transform="translate(40.269446 6.124908)" fill="#ed4949" stroke-width="0.6"/><path id="recall-rocket-favicon-u-left-wing" d="M122.994236,111.029513c.87749,7.688836,3.662188,27.371832,4.901049,34.886096-2.43054-4.57846-9.227437-11.155353-12.41794-10.27684-7.922051,2.625154-13.545468,20.310666-13.542072,40.689199-3.468944-4.483329-10.724312-20.155354-9.206605-35.999228c2.126834-22.202765,12.95519-35.109262,18.556176-36.123092c4.188199-.645027,8.862349,3.401903,11.709392,6.823865Z" fill="#ed4949" stroke-width="0.6"/></g></g></svg>
